<svg xmlns="http://www.w3.org/2000/svg" width="22.663" height="34.394" viewBox="0 0 22.663 34.394">
  <g id="Case_Narrative_Icon" data-name="TrialCase Narrative Icon" transform="translate(-21 -958.341)">
    <path id="Path_112" data-name="Path 112" d="M37.679,5.987a.782.782,0,0,0-.537.354L23.857,26.66a.782.782,0,0,0-.122.427v2.906L21.11,34.5a.782.782,0,0,0-.11.4v4.689a.782.782,0,0,0,1.1.708l4.3-1.954A.782.782,0,0,0,26.763,38l2.662-4.933L31.66,31.2a.782.782,0,0,0,.2-.256L39.34,15.707a.782.782,0,1,0-1.4-.684L30.817,29.529,25.64,26.806,36.214,10.64,41.868,14.1,37.093,24.01a.784.784,0,1,0,1.416.672l5.08-10.55a.782.782,0,0,0-.305-1l-2.051-1.258L42.4,9.455a.782.782,0,0,0-.293-1.013L38.2,6.1A.782.782,0,0,0,37.679,5.987Zm.379,1.832L40.7,9.406l-.806,1.648L37.069,9.333ZM25.3,28.381l4.457,2.357-1.026.867L25.3,29.737Zm-.488,2.882,2.943,1.612-2.235,4.152L22.563,38.37v-3.26Zm3.15,7.546a.782.782,0,0,0,.073,1.563H42.881a.782.782,0,1,0,0-1.563H28.033Q28,38.807,27.96,38.809Z" transform="translate(0 952.362)" fill="#4c4c4c"/>
  </g>
</svg>
