<svg xmlns="http://www.w3.org/2000/svg" width="24.131" height="27.578" viewBox="0 0 24.131 27.578">
  <path id="Documents_Icon" data-name="Documents Icon" d="M27.493,11.545A24.416,24.416,0,0,0,25.145,8.86,24.426,24.426,0,0,0,22.46,6.512a4.3,4.3,0,0,0-2.449-1.136H10.1A2.157,2.157,0,0,0,7.946,7.53V27.352A2.157,2.157,0,0,0,10.1,29.506H26.475a2.157,2.157,0,0,0,2.155-2.155V13.993a4.3,4.3,0,0,0-1.136-2.449Zm-3.567-1.466a23.507,23.507,0,0,1,1.955,2.192H21.735V8.124a23.491,23.491,0,0,1,2.192,1.954Zm2.979,17.273a.437.437,0,0,1-.431.431H10.1a.437.437,0,0,1-.431-.431V7.53A.437.437,0,0,1,10.1,7.1h9.911v6.033a.862.862,0,0,0,.862.862h6.033ZM19.013,3.064a4.3,4.3,0,0,0-2.449-1.136H6.653A2.157,2.157,0,0,0,4.5,4.083V23.9a2.158,2.158,0,0,0,1.724,2.111V4.083a.437.437,0,0,1,.431-.431H19.766c-.26-.213-.512-.411-.753-.587Z" transform="translate(-4.499 -1.928)" fill="#4c4c4c"/>
</svg>
