<svg xmlns="http://www.w3.org/2000/svg" xmlns:xlink="http://www.w3.org/1999/xlink" width="179.73" height="66.537" viewBox="0 0 179.73 66.537">
  <defs>
    <clipPath id="clip-path">
      <rect id="Rectangle_130" data-name="Rectangle 130" width="179.73" height="44.897" fill="#6d52ff"/>
    </clipPath>
  </defs>
  <g id="Logo" transform="translate(-118 -45.463)">
    <g id="Group_752" data-name="Group 752" transform="translate(118 45.463)">
      <g id="Group_751" data-name="Group 751" transform="translate(0 0)" clip-path="url(#clip-path)">
        <path id="Path_108" data-name="Path 108" d="M62.355,23.807c0,9.174-6.744,15.858-15.676,15.858S31,32.98,31,23.807C31,14.573,37.749,7.95,46.679,7.95s15.676,6.623,15.676,15.857m-8.081,0c0-5.65-3.645-8.505-7.595-8.505s-7.593,2.856-7.593,8.505c0,5.59,3.645,8.505,7.593,8.505s7.595-2.856,7.595-8.505" transform="translate(20.41 5.233)" fill="#6d52ff"/>
        <path id="Path_109" data-name="Path 109" d="M83.143,38.578c0,2,.121,4.194.244,5.408H75.671a20.692,20.692,0,0,1-.3-3.463c-1.337,2.37-4.375,4.191-8.384,4.191-8.505,0-14.581-6.683-14.581-15.734,0-8.749,5.894-15.614,14.338-15.614,5.164,0,7.595,2.126,8.446,3.706V0h7.958ZM67.955,37.485c4.131,0,7.351-3.159,7.351-8.567,0-5.346-3.22-8.325-7.351-8.325s-7.413,3.038-7.413,8.386,3.161,8.505,7.413,8.505" transform="translate(34.496 0)" fill="#6d52ff"/>
        <path id="Path_110" data-name="Path 110" d="M94.484,35.171c-1.64,2.794-5.1,4.01-8.262,4.01-7.23,0-11.361-5.287-11.361-11.785V8.5H82.94V25.754c0,3.341,1.7,6.015,5.467,6.015,3.585,0,5.651-2.431,5.651-5.892V8.5h8.079V32.984a49.288,49.288,0,0,0,.3,5.406H94.726a20.523,20.523,0,0,1-.242-3.219" transform="translate(49.28 5.594)" fill="#6d52ff"/>
        <path id="Path_111" data-name="Path 111" d="M100.8,28.909c.182,2.371,1.944,4.557,5.467,4.557,2.675,0,3.95-1.4,3.95-2.977,0-1.337-.912-2.431-3.22-2.917l-3.948-.91c-5.772-1.275-8.384-4.739-8.384-8.93,0-5.348,4.739-9.782,11.179-9.782,8.505,0,11.361,5.406,11.726,8.626L110.825,18.1a4.553,4.553,0,0,0-4.92-4.008c-2.128,0-3.827,1.274-3.827,2.975,0,1.458,1.093,2.37,2.733,2.675l4.254.91c5.894,1.216,8.87,4.8,8.87,9.174,0,4.859-3.768,9.842-11.6,9.842-8.991,0-12.091-5.832-12.454-9.235Z" transform="translate(61.797 5.233)" fill="#6d52ff"/>
        <rect id="Rectangle_127" data-name="Rectangle 127" width="9.553" height="43.152" transform="translate(0 0.832)" fill="#6d52ff"/>
        <rect id="Rectangle_128" data-name="Rectangle 128" width="9.681" height="29.68" transform="translate(17.503 0.832)" fill="#6d52ff"/>
        <rect id="Rectangle_129" data-name="Rectangle 129" width="9.53" height="43.152" transform="translate(35.144 0.832)" fill="#6d52ff"/>
      </g>
    </g>
    <text id="Your_3rd_Chair" data-name="Your 3rd Chair" transform="translate(206 109)" fill="#142260" font-size="13" font-family="CircularAir-Bold, Circular Air" font-weight="700"><tspan x="0" y="0">Your 3rd Chair</tspan></text>
  </g>
</svg>
