<svg xmlns="http://www.w3.org/2000/svg" width="24.325" height="30.625" viewBox="0 0 24.325 30.625">
  <g id="Timeline_Icon" data-name="Timeline Icon" transform="translate(-13.186 -3.51)">
    <path id="Path_98" data-name="Path 98" d="M19.121,10.886a2.831,2.831,0,1,0-3.482,2.753v5.316a2.827,2.827,0,0,0,0,5.5v5.313a2.831,2.831,0,1,0,1.3,0V24.456a2.827,2.827,0,0,0,0-5.5V13.638a2.834,2.834,0,0,0,2.179-2.753Zm-4.358,0a1.528,1.528,0,1,1,1.528,1.528,1.528,1.528,0,0,1-1.528-1.528Zm3.055,21.636a1.528,1.528,0,1,1-1.528-1.528A1.528,1.528,0,0,1,17.818,32.522Zm0-10.818a1.544,1.544,0,1,0,0,.013Z" transform="translate(0 -2.895)" fill="#4c4c4c" stroke="#4c4c4c" stroke-width="0.5"/>
    <path id="Path_99" data-name="Path 99" d="M51.191,12.275V3.76H38.95v8.515ZM40.253,5.063h9.635v5.909H40.253Z" transform="translate(-17.187 0)" fill="#4c4c4c" stroke="#4c4c4c" stroke-width="0.5"/>
    <path id="Path_100" data-name="Path 100" d="M54.449,36.89H38.95V45.4h15.5Zm-1.3,7.2H40.253v-5.9H53.146Z" transform="translate(-17.187 -22.338)" fill="#4c4c4c" stroke="#4c4c4c" stroke-width="0.5"/>
    <path id="Path_101" data-name="Path 101" d="M51.191,70.1H38.95v8.515H51.191Zm-1.3,7.212H40.253V71.4h9.635Z" transform="translate(-17.187 -44.73)" fill="#4c4c4c" stroke="#4c4c4c" stroke-width="0.5"/>
  </g>
</svg>
