<svg xmlns="http://www.w3.org/2000/svg" width="30.578" height="25.802" viewBox="0 0 30.578 25.802">
  <path id="Tasks_Icon" data-name="Tasks Icon" d="M8.338,2.459a.717.717,0,0,0-1.015,0L3.519,6.24,2.164,4.919a.717.717,0,0,0-1.015,0l-.938.939a.717.717,0,0,0,0,1.015L3.053,9.7A.763.763,0,0,0,4.1,9.7l.931-.933L9.348,4.459a.722.722,0,0,0,.005-1.015Zm0,9.507a.717.717,0,0,0-1.015,0l-3.8,3.805-1.356-1.32a.717.717,0,0,0-1.015,0l-.938.937a.717.717,0,0,0,0,1.015l2.835,2.837a.763.763,0,0,0,1.051,0l.938-.937L9.346,13.99a.717.717,0,0,0,.005-1.009ZM3.822,22.316a2.867,2.867,0,1,0,0,5.733,2.867,2.867,0,1,0,0-5.733Zm25.8.956h-17.2a.956.956,0,0,0-.956.956v1.911a.956.956,0,0,0,.956.956h17.2a.956.956,0,0,0,.956-.956V24.227A.956.956,0,0,0,29.622,23.272Zm0-19.111h-17.2a.956.956,0,0,0-.956.956V7.027a.956.956,0,0,0,.956.956h17.2a.956.956,0,0,0,.956-.956V5.116A.956.956,0,0,0,29.622,4.161Zm0,9.556h-17.2a.956.956,0,0,0-.956.956v1.911a.956.956,0,0,0,.956.956h17.2a.956.956,0,0,0,.956-.956V14.672A.956.956,0,0,0,29.622,13.716Z" transform="translate(0 -2.248)" fill="#4c4c4c"/>
</svg>
