<svg xmlns="http://www.w3.org/2000/svg" width="39.993" height="35.412" viewBox="0 0 39.993 35.412">
  <g id="Trial_Notebook_Icon" data-name="Trial Notebook Icon" transform="translate(0.25 0.375)">
    <path id="Path_113" data-name="Path 113" d="M43.014,63.372h1.53v-1.28a1.91,1.91,0,0,1,1.907-1.907H59.637a1.91,1.91,0,0,1,1.907,1.907v1.28h1.534a.439.439,0,0,1,.439.439V67a.439.439,0,0,1-.439.439H43.015A.439.439,0,0,1,42.576,67V63.811A.438.438,0,0,1,43.014,63.372Zm17.652-1.28a1.031,1.031,0,0,0-1.03-1.03H46.452a1.031,1.031,0,0,0-1.03,1.03v1.28H60.666ZM43.453,66.559H62.639V64.25H43.453v2.309Z" transform="translate(-42.576 -32.65)" fill="#4c4c4c" stroke="#4c4c4c" stroke-width="0.5"/>
    <path id="Path_114" data-name="Path 114" d="M7.653,17.7l6.786-9.98a2.015,2.015,0,0,1,2.678-2.962l5.964,4.055a2.015,2.015,0,0,1-1.77,3.579l-1.487,2.187a1.36,1.36,0,0,0,.359,1.887l14.089,9.58a3.533,3.533,0,0,1,4.764,2.982,3.553,3.553,0,0,1-1.049,2.854,3.533,3.533,0,0,1-6-2.474L17.9,19.822a1.36,1.36,0,0,0-1.887.359l-1.487,2.187a2.015,2.015,0,0,1-2.678,2.962L5.883,21.275A2.015,2.015,0,0,1,7.653,17.7Zm15.236-6.574a1.144,1.144,0,0,0-.3-1.588L16.623,5.479a1.143,1.143,0,0,0-1.285,1.89L21.3,11.424A1.143,1.143,0,0,0,22.889,11.122Zm-4.5,7.975L32.68,28.813a.437.437,0,0,1,.186.424,2.654,2.654,0,1,0,1.589-2.323.439.439,0,0,1-.476-.011L19.69,17.187a2.237,2.237,0,0,1-.591-3.106l1.439-2.116L15.117,8.28l-6.69,9.839L13.847,21.8l1.439-2.116A2.237,2.237,0,0,1,18.391,19.1ZM6.376,20.549,12.34,24.6a1.143,1.143,0,0,0,1.285-1.89L7.661,18.659a1.143,1.143,0,0,0-1.285,1.89Z" transform="translate(0.439 -4.405)" fill="#4c4c4c" stroke="#4c4c4c" stroke-width="0.5"/>
  </g>
</svg>
